{
    "asset" : {
        "generator" : "Khronos glTF Blender I/O v3.4.50",
        "version" : "2.0"
    },
    "scene" : 0,
    "scenes" : [
        {
            "name" : "Scene",
            "nodes" : [
                0,
                1,
                2,
                3,
                4,
                5,
                6,
                7,
                8,
                9
            ]
        }
    ],
    "nodes" : [
        {
            "mesh" : 0,
            "name" : "Material2"
        },
        {
            "mesh" : 1,
            "name" : "Material3"
        },
        {
            "mesh" : 2,
            "name" : "Material2.001"
        },
        {
            "mesh" : 3,
            "name" : "Material3.001"
        },
        {
            "mesh" : 4,
            "name" : "Material2.002"
        },
        {
            "mesh" : 5,
            "name" : "Material2.003"
        },
        {
            "mesh" : 6,
            "name" : "Material3.002"
        },
        {
            "mesh" : 7,
            "name" : "Material3.003"
        },
        {
            "mesh" : 8,
            "name" : "Material3.004"
        },
        {
            "mesh" : 9,
            "name" : "Material2.004"
        }
    ],
    "materials" : [
        {
            "name" : "Material3",
            "pbrMetallicRoughness" : {
                "baseColorFactor" : [
                    0.05882349982857704,
                    0.49803900718688965,
                    0.9960780143737793,
                    1
                ],
                "metallicFactor" : 0,
                "roughnessFactor" : 0.6000000238418579
            }
        },
        {
            "name" : "Material6",
            "pbrMetallicRoughness" : {
                "baseColorFactor" : [
                    0.9700679779052734,
                    0.10876679420471191,
                    0.10532061010599136,
                    1
                ],
                "metallicFactor" : 0,
                "roughnessFactor" : 0.6000000238418579
            }
        },
        {
            "name" : "Material4",
            "pbrMetallicRoughness" : {
                "baseColorFactor" : [
                    1,
                    0.9801624417304993,
                    0.2181595265865326,
                    1
                ],
                "metallicFactor" : 0,
                "roughnessFactor" : 0.6000000238418579
            }
        },
        {
            "name" : "Material7",
            "pbrMetallicRoughness" : {
                "baseColorFactor" : [
                    0.6429212093353271,
                    0.177906796336174,
                    0.9117890000343323,
                    1
                ],
                "metallicFactor" : 0,
                "roughnessFactor" : 0.6000000238418579
            }
        },
        {
            "name" : "Material5",
            "pbrMetallicRoughness" : {
                "baseColorFactor" : [
                    0.4000000059604645,
                    0.4000000059604645,
                    0.9960780143737793,
                    1
                ],
                "metallicFactor" : 0,
                "roughnessFactor" : 0.6000000238418579
            }
        },
        {
            "name" : "material",
            "pbrMetallicRoughness" : {
                "metallicFactor" : 0,
                "roughnessFactor" : 0.6000000238418579
            }
        },
        {
            "name" : "Material1",
            "pbrMetallicRoughness" : {
                "baseColorFactor" : [
                    0.062745101749897,
                    0.49803900718688965,
                    0.2509799897670746,
                    1
                ],
                "metallicFactor" : 0,
                "roughnessFactor" : 0.6000000238418579
            }
        },
        {
            "name" : "Material2",
            "pbrMetallicRoughness" : {
                "baseColorFactor" : [
                    0.09411759674549103,
                    0.09411759674549103,
                    0.09411759674549103,
                    1
                ],
                "metallicFactor" : 0,
                "roughnessFactor" : 0.6000000238418579
            }
        },
        {
            "name" : "Material.001",
            "pbrMetallicRoughness" : {
                "baseColorFactor" : [
                    0.9700679779052734,
                    0.11632698029279709,
                    0.13402137160301208,
                    1
                ],
                "metallicFactor" : 0,
                "roughnessFactor" : 0.6000000238418579
            }
        },
        {
            "name" : "Material8",
            "pbrMetallicRoughness" : {
                "baseColorFactor" : [
                    0.9843140244483948,
                    0.003921600058674812,
                    0.023529399186372757,
                    1
                ],
                "metallicFactor" : 0,
                "roughnessFactor" : 0.6000000238418579
            }
        }
    ],
    "meshes" : [
        {
            "name" : "Material2",
            "primitives" : [
                {
                    "attributes" : {
                        "POSITION" : 0,
                        "NORMAL" : 1
                    },
                    "indices" : 2,
                    "material" : 0
                }
            ]
        },
        {
            "name" : "Material3",
            "primitives" : [
                {
                    "attributes" : {
                        "POSITION" : 3,
                        "NORMAL" : 4
                    },
                    "indices" : 5,
                    "material" : 1
                }
            ]
        },
        {
            "name" : "Material2.001",
            "primitives" : [
                {
                    "attributes" : {
                        "POSITION" : 6,
                        "NORMAL" : 7
                    },
                    "indices" : 8,
                    "material" : 2
                }
            ]
        },
        {
            "name" : "Material3.001",
            "primitives" : [
                {
                    "attributes" : {
                        "POSITION" : 9,
                        "NORMAL" : 10
                    },
                    "indices" : 11,
                    "material" : 3
                }
            ]
        },
        {
            "name" : "Material2.002",
            "primitives" : [
                {
                    "attributes" : {
                        "POSITION" : 12,
                        "NORMAL" : 13
                    },
                    "indices" : 14,
                    "material" : 4
                }
            ]
        },
        {
            "name" : "Material2.003",
            "primitives" : [
                {
                    "attributes" : {
                        "POSITION" : 15,
                        "NORMAL" : 16
                    },
                    "indices" : 17,
                    "material" : 5
                }
            ]
        },
        {
            "name" : "Material3.002",
            "primitives" : [
                {
                    "attributes" : {
                        "POSITION" : 18,
                        "NORMAL" : 19
                    },
                    "indices" : 20,
                    "material" : 6
                }
            ]
        },
        {
            "name" : "Material3.003",
            "primitives" : [
                {
                    "attributes" : {
                        "POSITION" : 21,
                        "NORMAL" : 22
                    },
                    "indices" : 23,
                    "material" : 7
                }
            ]
        },
        {
            "name" : "Material3.004",
            "primitives" : [
                {
                    "attributes" : {
                        "POSITION" : 24,
                        "NORMAL" : 25
                    },
                    "indices" : 26,
                    "material" : 8
                }
            ]
        },
        {
            "name" : "Material2.004",
            "primitives" : [
                {
                    "attributes" : {
                        "POSITION" : 27,
                        "NORMAL" : 28
                    },
                    "indices" : 29,
                    "material" : 9
                }
            ]
        }
    ],
    "accessors" : [
        {
            "bufferView" : 0,
            "componentType" : 5126,
            "count" : 35,
            "max" : [
                8.310501098632812,
                9.145919799804688,
                -71.7630615234375
            ],
            "min" : [
                7.5892181396484375,
                0.9459228515625,
                -72.48434448242188
            ],
            "type" : "VEC3"
        },
        {
            "bufferView" : 1,
            "componentType" : 5126,
            "count" : 35,
            "type" : "VEC3"
        },
        {
            "bufferView" : 2,
            "componentType" : 5123,
            "count" : 48,
            "type" : "SCALAR"
        },
        {
            "bufferView" : 3,
            "componentType" : 5126,
            "count" : 1178,
            "max" : [
                8.642471313476562,
                17.868881225585938,
                -25.579864501953125
            ],
            "min" : [
                -4.2177276611328125,
                9.077171325683594,
                -72.76644897460938
            ],
            "type" : "VEC3"
        },
        {
            "bufferView" : 4,
            "componentType" : 5126,
            "count" : 1178,
            "type" : "VEC3"
        },
        {
            "bufferView" : 5,
            "componentType" : 5123,
            "count" : 4041,
            "type" : "SCALAR"
        },
        {
            "bufferView" : 6,
            "componentType" : 5126,
            "count" : 2198,
            "max" : [
                9.503646850585938,
                18.956085205078125,
                -25.579864501953125
            ],
            "min" : [
                -8.584030151367188,
                0.62353515625,
                -71.7630615234375
            ],
            "type" : "VEC3"
        },
        {
            "bufferView" : 7,
            "componentType" : 5126,
            "count" : 2198,
            "type" : "VEC3"
        },
        {
            "bufferView" : 8,
            "componentType" : 5123,
            "count" : 2598,
            "type" : "SCALAR"
        },
        {
            "bufferView" : 9,
            "componentType" : 5126,
            "count" : 253,
            "max" : [
                3.239349365234375,
                19.650131225585938,
                -28.04480743408203
            ],
            "min" : [
                -2.354400634765625,
                0.1771697998046875,
                -33.81951904296875
            ],
            "type" : "VEC3"
        },
        {
            "bufferView" : 10,
            "componentType" : 5126,
            "count" : 253,
            "type" : "VEC3"
        },
        {
            "bufferView" : 11,
            "componentType" : 5123,
            "count" : 294,
            "type" : "SCALAR"
        },
        {
            "bufferView" : 12,
            "componentType" : 5126,
            "count" : 1372,
            "max" : [
                8.363937377929688,
                19.650131225585938,
                -26.236488342285156
            ],
            "min" : [
                -7.4648895263671875,
                0.1771697998046875,
                -35.596588134765625
            ],
            "type" : "VEC3"
        },
        {
            "bufferView" : 13,
            "componentType" : 5126,
            "count" : 1372,
            "type" : "VEC3"
        },
        {
            "bufferView" : 14,
            "componentType" : 5123,
            "count" : 1971,
            "type" : "SCALAR"
        },
        {
            "bufferView" : 15,
            "componentType" : 5126,
            "count" : 534,
            "max" : [
                8.363937377929688,
                7.978302001953125,
                5.2056884765625
            ],
            "min" : [
                -20.257064819335938,
                -0.8228302001953125,
                -72.48434448242188
            ],
            "type" : "VEC3"
        },
        {
            "bufferView" : 16,
            "componentType" : 5126,
            "count" : 534,
            "type" : "VEC3"
        },
        {
            "bufferView" : 17,
            "componentType" : 5123,
            "count" : 2013,
            "type" : "SCALAR"
        },
        {
            "bufferView" : 18,
            "componentType" : 5126,
            "count" : 144,
            "max" : [
                7.5892181396484375,
                0.17717742919921875,
                5.2056884765625
            ],
            "min" : [
                -19.535781860351562,
                -0.8228302001953125,
                -71.7630615234375
            ],
            "type" : "VEC3"
        },
        {
            "bufferView" : 19,
            "componentType" : 5126,
            "count" : 144,
            "type" : "VEC3"
        },
        {
            "bufferView" : 20,
            "componentType" : 5123,
            "count" : 192,
            "type" : "SCALAR"
        },
        {
            "bufferView" : 21,
            "componentType" : 5126,
            "count" : 48,
            "max" : [
                -4.1421051025390625,
                0.1771697998046875,
                -62.94256591796875
            ],
            "min" : [
                -5.7888946533203125,
                -0.6790771484375,
                -64.58935546875
            ],
            "type" : "VEC3"
        },
        {
            "bufferView" : 22,
            "componentType" : 5126,
            "count" : 48,
            "type" : "VEC3"
        },
        {
            "bufferView" : 23,
            "componentType" : 5123,
            "count" : 144,
            "type" : "SCALAR"
        },
        {
            "bufferView" : 24,
            "componentType" : 5126,
            "count" : 139,
            "max" : [
                8.363937377929688,
                0.9459228515625,
                5.2056884765625
            ],
            "min" : [
                -20.257064819335938,
                -0.8228302001953125,
                -72.48434448242188
            ],
            "type" : "VEC3"
        },
        {
            "bufferView" : 25,
            "componentType" : 5126,
            "count" : 139,
            "type" : "VEC3"
        },
        {
            "bufferView" : 26,
            "componentType" : 5123,
            "count" : 204,
            "type" : "SCALAR"
        },
        {
            "bufferView" : 27,
            "componentType" : 5126,
            "count" : 852,
            "max" : [
                8.431808471679688,
                7.4935760498046875,
                -71.47300720214844
            ],
            "min" : [
                7.4942779541015625,
                6.014984130859375,
                -71.52555847167969
            ],
            "type" : "VEC3"
        },
        {
            "bufferView" : 28,
            "componentType" : 5126,
            "count" : 852,
            "type" : "VEC3"
        },
        {
            "bufferView" : 29,
            "componentType" : 5123,
            "count" : 1296,
            "type" : "SCALAR"
        }
    ],
    "bufferViews" : [
        {
            "buffer" : 0,
            "byteLength" : 420,
            "byteOffset" : 0,
            "target" : 34962
        },
        {
            "buffer" : 0,
            "byteLength" : 420,
            "byteOffset" : 420,
            "target" : 34962
        },
        {
            "buffer" : 0,
            "byteLength" : 96,
            "byteOffset" : 840,
            "target" : 34963
        },
        {
            "buffer" : 0,
            "byteLength" : 14136,
            "byteOffset" : 936,
            "target" : 34962
        },
        {
            "buffer" : 0,
            "byteLength" : 14136,
            "byteOffset" : 15072,
            "target" : 34962
        },
        {
            "buffer" : 0,
            "byteLength" : 8082,
            "byteOffset" : 29208,
            "target" : 34963
        },
        {
            "buffer" : 0,
            "byteLength" : 26376,
            "byteOffset" : 37292,
            "target" : 34962
        },
        {
            "buffer" : 0,
            "byteLength" : 26376,
            "byteOffset" : 63668,
            "target" : 34962
        },
        {
            "buffer" : 0,
            "byteLength" : 5196,
            "byteOffset" : 90044,
            "target" : 34963
        },
        {
            "buffer" : 0,
            "byteLength" : 3036,
            "byteOffset" : 95240,
            "target" : 34962
        },
        {
            "buffer" : 0,
            "byteLength" : 3036,
            "byteOffset" : 98276,
            "target" : 34962
        },
        {
            "buffer" : 0,
            "byteLength" : 588,
            "byteOffset" : 101312,
            "target" : 34963
        },
        {
            "buffer" : 0,
            "byteLength" : 16464,
            "byteOffset" : 101900,
            "target" : 34962
        },
        {
            "buffer" : 0,
            "byteLength" : 16464,
            "byteOffset" : 118364,
            "target" : 34962
        },
        {
            "buffer" : 0,
            "byteLength" : 3942,
            "byteOffset" : 134828,
            "target" : 34963
        },
        {
            "buffer" : 0,
            "byteLength" : 6408,
            "byteOffset" : 138772,
            "target" : 34962
        },
        {
            "buffer" : 0,
            "byteLength" : 6408,
            "byteOffset" : 145180,
            "target" : 34962
        },
        {
            "buffer" : 0,
            "byteLength" : 4026,
            "byteOffset" : 151588,
            "target" : 34963
        },
        {
            "buffer" : 0,
            "byteLength" : 1728,
            "byteOffset" : 155616,
            "target" : 34962
        },
        {
            "buffer" : 0,
            "byteLength" : 1728,
            "byteOffset" : 157344,
            "target" : 34962
        },
        {
            "buffer" : 0,
            "byteLength" : 384,
            "byteOffset" : 159072,
            "target" : 34963
        },
        {
            "buffer" : 0,
            "byteLength" : 576,
            "byteOffset" : 159456,
            "target" : 34962
        },
        {
            "buffer" : 0,
            "byteLength" : 576,
            "byteOffset" : 160032,
            "target" : 34962
        },
        {
            "buffer" : 0,
            "byteLength" : 288,
            "byteOffset" : 160608,
            "target" : 34963
        },
        {
            "buffer" : 0,
            "byteLength" : 1668,
            "byteOffset" : 160896,
            "target" : 34962
        },
        {
            "buffer" : 0,
            "byteLength" : 1668,
            "byteOffset" : 162564,
            "target" : 34962
        },
        {
            "buffer" : 0,
            "byteLength" : 408,
            "byteOffset" : 164232,
            "target" : 34963
        },
        {
            "buffer" : 0,
            "byteLength" : 10224,
            "byteOffset" : 164640,
            "target" : 34962
        },
        {
            "buffer" : 0,
            "byteLength" : 10224,
            "byteOffset" : 174864,
            "target" : 34962
        },
        {
            "buffer" : 0,
            "byteLength" : 2592,
            "byteOffset" : 185088,
            "target" : 34963
        }
    ],
    "buffers" : [
        {
            "byteLength" : 187680,
            "uri" : "data:application/octet-stream;base64,"
        }
    ]
}
