{
    "asset" : {
        "generator" : "Khronos glTF Blender I/O v3.4.50",
        "version" : "2.0"
    },
    "scene" : 0,
    "scenes" : [
        {
            "name" : "Scene",
            "nodes" : [
                3
            ]
        }
    ],
    "nodes" : [
        {
            "mesh" : 0,
            "name" : "MiniCourse_Dirt_0"
        },
        {
            "mesh" : 1,
            "name" : "MiniCourse_Edge_0"
        },
        {
            "mesh" : 2,
            "name" : "MiniCourse_Grass_0"
        },
        {
            "children" : [
                0,
                1,
                2
            ],
            "name" : "MiniCourse"
        }
    ],
    "materials" : [
        {
            "doubleSided" : true,
            "name" : "Dirt.002",
            "pbrMetallicRoughness" : {
                "baseColorFactor" : [
                    0.2529430091381073,
                    0.06267660111188889,
                    0.01128809992223978,
                    1
                ],
                "metallicFactor" : 0,
                "roughnessFactor" : 0.977769672870636
            }
        },
        {
            "doubleSided" : true,
            "name" : "Edge.002",
            "pbrMetallicRoughness" : {
                "baseColorFactor" : [
                    0.800000011920929,
                    0.800000011920929,
                    0.800000011920929,
                    1
                ],
                "metallicFactor" : 0,
                "roughnessFactor" : 0.8211145401000977
            }
        },
        {
            "doubleSided" : true,
            "name" : "Grass.002",
            "pbrMetallicRoughness" : {
                "baseColorTexture" : {
                    "index" : 0
                },
                "metallicFactor" : 0,
                "roughnessFactor" : 0.8634546995162964
            }
        }
    ],
    "meshes" : [
        {
            "name" : "MiniCourse_Dirt_0.002",
            "primitives" : [
                {
                    "attributes" : {
                        "POSITION" : 0,
                        "TEXCOORD_0" : 1,
                        "NORMAL" : 2
                    },
                    "indices" : 3,
                    "material" : 0
                }
            ]
        },
        {
            "name" : "MiniCourse_Edge_0.002",
            "primitives" : [
                {
                    "attributes" : {
                        "POSITION" : 4,
                        "TEXCOORD_0" : 5,
                        "NORMAL" : 6
                    },
                    "indices" : 7,
                    "material" : 1
                }
            ]
        },
        {
            "name" : "MiniCourse_Grass_0.002",
            "primitives" : [
                {
                    "attributes" : {
                        "POSITION" : 8,
                        "TEXCOORD_0" : 9,
                        "NORMAL" : 10
                    },
                    "indices" : 11,
                    "material" : 2
                }
            ]
        }
    ],
    "textures" : [
        {
            "sampler" : 0,
            "source" : 0
        }
    ],
    "images" : [
        {
            "bufferView" : 12,
            "mimeType" : "image/jpeg",
            "name" : "grass"
        }
    ],
    "accessors" : [
        {
            "bufferView" : 0,
            "componentType" : 5126,
            "count" : 349,
            "max" : [
                1.8693184852600098,
                0.08921486139297485,
                1.1524615287780762
            ],
            "min" : [
                -10.12026596069336,
                -1.9830952882766724,
                -7.845368385314941
            ],
            "type" : "VEC3"
        },
        {
            "bufferView" : 1,
            "componentType" : 5126,
            "count" : 349,
            "type" : "VEC2"
        },
        {
            "bufferView" : 2,
            "componentType" : 5126,
            "count" : 349,
            "type" : "VEC3"
        },
        {
            "bufferView" : 3,
            "componentType" : 5123,
            "count" : 1494,
            "type" : "SCALAR"
        },
        {
            "bufferView" : 4,
            "componentType" : 5126,
            "count" : 290,
            "max" : [
                1.9137568473815918,
                0.5257604122161865,
                1.1946163177490234
            ],
            "min" : [
                -10.180889129638672,
                -1.1005624532699585,
                -7.896929740905762
            ],
            "type" : "VEC3"
        },
        {
            "bufferView" : 5,
            "componentType" : 5126,
            "count" : 290,
            "type" : "VEC2"
        },
        {
            "bufferView" : 6,
            "componentType" : 5126,
            "count" : 290,
            "type" : "VEC3"
        },
        {
            "bufferView" : 7,
            "componentType" : 5123,
            "count" : 1377,
            "type" : "SCALAR"
        },
        {
            "bufferView" : 8,
            "componentType" : 5126,
            "count" : 227,
            "max" : [
                1.8693184852600098,
                0.08921486139297485,
                1.1546311378479004
            ],
            "min" : [
                -10.130681991577148,
                -0.986507773399353,
                -7.845368385314941
            ],
            "type" : "VEC3"
        },
        {
            "bufferView" : 9,
            "componentType" : 5126,
            "count" : 227,
            "type" : "VEC2"
        },
        {
            "bufferView" : 10,
            "componentType" : 5126,
            "count" : 227,
            "type" : "VEC3"
        },
        {
            "bufferView" : 11,
            "componentType" : 5123,
            "count" : 360,
            "type" : "SCALAR"
        }
    ],
    "bufferViews" : [
        {
            "buffer" : 0,
            "byteLength" : 4188,
            "byteOffset" : 0,
            "target" : 34962
        },
        {
            "buffer" : 0,
            "byteLength" : 2792,
            "byteOffset" : 4188,
            "target" : 34962
        },
        {
            "buffer" : 0,
            "byteLength" : 4188,
            "byteOffset" : 6980,
            "target" : 34962
        },
        {
            "buffer" : 0,
            "byteLength" : 2988,
            "byteOffset" : 11168,
            "target" : 34963
        },
        {
            "buffer" : 0,
            "byteLength" : 3480,
            "byteOffset" : 14156,
            "target" : 34962
        },
        {
            "buffer" : 0,
            "byteLength" : 2320,
            "byteOffset" : 17636,
            "target" : 34962
        },
        {
            "buffer" : 0,
            "byteLength" : 3480,
            "byteOffset" : 19956,
            "target" : 34962
        },
        {
            "buffer" : 0,
            "byteLength" : 2754,
            "byteOffset" : 23436,
            "target" : 34963
        },
        {
            "buffer" : 0,
            "byteLength" : 2724,
            "byteOffset" : 26192,
            "target" : 34962
        },
        {
            "buffer" : 0,
            "byteLength" : 1816,
            "byteOffset" : 28916,
            "target" : 34962
        },
        {
            "buffer" : 0,
            "byteLength" : 2724,
            "byteOffset" : 30732,
            "target" : 34962
        },
        {
            "buffer" : 0,
            "byteLength" : 720,
            "byteOffset" : 33456,
            "target" : 34963
        },
        {
            "buffer" : 0,
            "byteLength" : 308867,
            "byteOffset" : 34176
        }
    ],
    "samplers" : [
        {
            "magFilter" : 9729,
            "minFilter" : 9987
        }
    ],
    "buffers" : [
        {
            "byteLength" : 343044,
            "uri" : "data:application/octet-stream;base64,"
        }
    ]
}
