{
    "asset" : {
        "generator" : "Khronos glTF Blender I/O v3.4.50",
        "version" : "2.0"
    },
    "scene" : 0,
    "scenes" : [
        {
            "name" : "Scene",
            "nodes" : [
                3
            ]
        }
    ],
    "nodes" : [
        {
            "mesh" : 0,
            "name" : "MiniCourse_Dirt_0"
        },
        {
            "mesh" : 1,
            "name" : "MiniCourse_Edge_0"
        },
        {
            "mesh" : 2,
            "name" : "MiniCourse_Grass_0"
        },
        {
            "children" : [
                0,
                1,
                2
            ],
            "name" : "MiniCourse"
        }
    ],
    "materials" : [
        {
            "doubleSided" : true,
            "name" : "Dirt.002",
            "pbrMetallicRoughness" : {
                "baseColorFactor" : [
                    0.2529430091381073,
                    0.06267660111188889,
                    0.01128809992223978,
                    1
                ],
                "metallicFactor" : 0,
                "roughnessFactor" : 0.977769672870636
            }
        },
        {
            "doubleSided" : true,
            "name" : "Edge.002",
            "pbrMetallicRoughness" : {
                "baseColorFactor" : [
                    0.800000011920929,
                    0.800000011920929,
                    0.800000011920929,
                    1
                ],
                "metallicFactor" : 0,
                "roughnessFactor" : 0.8211145401000977
            }
        },
        {
            "doubleSided" : true,
            "name" : "Grass.002",
            "pbrMetallicRoughness" : {
                "baseColorTexture" : {
                    "index" : 0
                },
                "metallicFactor" : 0,
                "roughnessFactor" : 0.8634546995162964
            }
        }
    ],
    "meshes" : [
        {
            "name" : "MiniCourse_Dirt_0.002",
            "primitives" : [
                {
                    "attributes" : {
                        "POSITION" : 0,
                        "TEXCOORD_0" : 1,
                        "NORMAL" : 2
                    },
                    "indices" : 3,
                    "material" : 0
                }
            ]
        },
        {
            "name" : "MiniCourse_Edge_0.002",
            "primitives" : [
                {
                    "attributes" : {
                        "POSITION" : 4,
                        "TEXCOORD_0" : 5,
                        "NORMAL" : 6
                    },
                    "indices" : 7,
                    "material" : 1
                }
            ]
        },
        {
            "name" : "MiniCourse_Grass_0.002",
            "primitives" : [
                {
                    "attributes" : {
                        "POSITION" : 8,
                        "TEXCOORD_0" : 9,
                        "NORMAL" : 10
                    },
                    "indices" : 11,
                    "material" : 2
                }
            ]
        }
    ],
    "textures" : [
        {
            "sampler" : 0,
            "source" : 0
        }
    ],
    "images" : [
        {
            "bufferView" : 12,
            "mimeType" : "image/jpeg",
            "name" : "grass"
        }
    ],
    "accessors" : [
        {
            "bufferView" : 0,
            "componentType" : 5126,
            "count" : 288,
            "max" : [
                2.000476360321045,
                0.08664655685424805,
                0.8699569702148438
            ],
            "min" : [
                -1.9995226860046387,
                -3.1905410289764404,
                -13.20771598815918
            ],
            "type" : "VEC3"
        },
        {
            "bufferView" : 1,
            "componentType" : 5126,
            "count" : 288,
            "type" : "VEC2"
        },
        {
            "bufferView" : 2,
            "componentType" : 5126,
            "count" : 288,
            "type" : "VEC3"
        },
        {
            "bufferView" : 3,
            "componentType" : 5123,
            "count" : 1110,
            "type" : "SCALAR"
        },
        {
            "bufferView" : 4,
            "componentType" : 5126,
            "count" : 221,
            "max" : [
                2.0520377159118652,
                0.5231921672821045,
                0.9121122360229492
            ],
            "min" : [
                -2.0534205436706543,
                -2.321892023086548,
                -13.268339157104492
            ],
            "type" : "VEC3"
        },
        {
            "bufferView" : 5,
            "componentType" : 5126,
            "count" : 221,
            "type" : "VEC2"
        },
        {
            "bufferView" : 6,
            "componentType" : 5126,
            "count" : 221,
            "type" : "VEC3"
        },
        {
            "bufferView" : 7,
            "componentType" : 5123,
            "count" : 1113,
            "type" : "SCALAR"
        },
        {
            "bufferView" : 8,
            "componentType" : 5126,
            "count" : 289,
            "max" : [
                2.000476360321045,
                0.08664655685424805,
                0.872126579284668
            ],
            "min" : [
                -1.999523639678955,
                -2.422314167022705,
                -13.218133926391602
            ],
            "type" : "VEC3"
        },
        {
            "bufferView" : 9,
            "componentType" : 5126,
            "count" : 289,
            "type" : "VEC2"
        },
        {
            "bufferView" : 10,
            "componentType" : 5126,
            "count" : 289,
            "type" : "VEC3"
        },
        {
            "bufferView" : 11,
            "componentType" : 5123,
            "count" : 828,
            "type" : "SCALAR"
        }
    ],
    "bufferViews" : [
        {
            "buffer" : 0,
            "byteLength" : 3456,
            "byteOffset" : 0,
            "target" : 34962
        },
        {
            "buffer" : 0,
            "byteLength" : 2304,
            "byteOffset" : 3456,
            "target" : 34962
        },
        {
            "buffer" : 0,
            "byteLength" : 3456,
            "byteOffset" : 5760,
            "target" : 34962
        },
        {
            "buffer" : 0,
            "byteLength" : 2220,
            "byteOffset" : 9216,
            "target" : 34963
        },
        {
            "buffer" : 0,
            "byteLength" : 2652,
            "byteOffset" : 11436,
            "target" : 34962
        },
        {
            "buffer" : 0,
            "byteLength" : 1768,
            "byteOffset" : 14088,
            "target" : 34962
        },
        {
            "buffer" : 0,
            "byteLength" : 2652,
            "byteOffset" : 15856,
            "target" : 34962
        },
        {
            "buffer" : 0,
            "byteLength" : 2226,
            "byteOffset" : 18508,
            "target" : 34963
        },
        {
            "buffer" : 0,
            "byteLength" : 3468,
            "byteOffset" : 20736,
            "target" : 34962
        },
        {
            "buffer" : 0,
            "byteLength" : 2312,
            "byteOffset" : 24204,
            "target" : 34962
        },
        {
            "buffer" : 0,
            "byteLength" : 3468,
            "byteOffset" : 26516,
            "target" : 34962
        },
        {
            "buffer" : 0,
            "byteLength" : 1656,
            "byteOffset" : 29984,
            "target" : 34963
        },
        {
            "buffer" : 0,
            "byteLength" : 308867,
            "byteOffset" : 31640
        }
    ],
    "samplers" : [
        {
            "magFilter" : 9729,
            "minFilter" : 9987
        }
    ],
    "buffers" : [
        {
            "byteLength" : 340508,
            "uri" : "data:application/octet-stream;base64,"
        }
    ]
}
