{
    "asset" : {
        "generator" : "Khronos glTF Blender I/O v3.4.50",
        "version" : "2.0"
    },
    "scene" : 0,
    "scenes" : [
        {
            "name" : "Scene",
            "nodes" : [
                6
            ]
        }
    ],
    "nodes" : [
        {
            "mesh" : 0,
            "name" : "MiniCourse_Dirt_0"
        },
        {
            "mesh" : 1,
            "name" : "MiniCourse_Edge_0"
        },
        {
            "mesh" : 2,
            "name" : "MiniCourse_Grass_0"
        },
        {
            "children" : [
                0,
                1,
                2
            ],
            "name" : "MiniCourse"
        },
        {
            "children" : [
                3
            ],
            "name" : "RootNode"
        },
        {
            "children" : [
                4
            ],
            "name" : "9d7e819bf49c4cf1845d13ae3d6830d2.fbx"
        },
        {
            "children" : [
                5
            ],
            "name" : "Sketchfab_model"
        }
    ],
    "materials" : [
        {
            "doubleSided" : true,
            "name" : "Dirt.002",
            "pbrMetallicRoughness" : {
                "baseColorFactor" : [
                    0.2529430091381073,
                    0.06267660111188889,
                    0.01128809992223978,
                    1
                ],
                "metallicFactor" : 0,
                "roughnessFactor" : 0.977769672870636
            }
        },
        {
            "doubleSided" : true,
            "name" : "Edge.002",
            "pbrMetallicRoughness" : {
                "baseColorFactor" : [
                    0.800000011920929,
                    0.800000011920929,
                    0.800000011920929,
                    1
                ],
                "metallicFactor" : 0,
                "roughnessFactor" : 0.8211145401000977
            }
        },
        {
            "doubleSided" : true,
            "name" : "Grass.002",
            "pbrMetallicRoughness" : {
                "baseColorFactor" : [
                    0.13475799560546875,
                    0.800000011920929,
                    0.1362839937210083,
                    1
                ],
                "metallicFactor" : 0,
                "roughnessFactor" : 0.8634546995162964
            }
        }
    ],
    "meshes" : [
        {
            "name" : "MiniCourse_Dirt_0.002",
            "primitives" : [
                {
                    "attributes" : {
                        "POSITION" : 0,
                        "TEXCOORD_0" : 1,
                        "NORMAL" : 2
                    },
                    "indices" : 3,
                    "material" : 0
                }
            ]
        },
        {
            "name" : "MiniCourse_Edge_0.002",
            "primitives" : [
                {
                    "attributes" : {
                        "POSITION" : 4,
                        "TEXCOORD_0" : 5,
                        "NORMAL" : 6
                    },
                    "indices" : 7,
                    "material" : 1
                }
            ]
        },
        {
            "name" : "MiniCourse_Grass_0.002",
            "primitives" : [
                {
                    "attributes" : {
                        "POSITION" : 8,
                        "TEXCOORD_0" : 9,
                        "NORMAL" : 10
                    },
                    "indices" : 11,
                    "material" : 2
                }
            ]
        }
    ],
    "accessors" : [
        {
            "bufferView" : 0,
            "componentType" : 5126,
            "count" : 8843,
            "max" : [
                14.000000953674316,
                5,
                1.0000001192092896
            ],
            "min" : [
                -4,
                -1.0000019073486328,
                -23.0000057220459
            ],
            "type" : "VEC3"
        },
        {
            "bufferView" : 1,
            "componentType" : 5126,
            "count" : 8843,
            "type" : "VEC2"
        },
        {
            "bufferView" : 2,
            "componentType" : 5126,
            "count" : 8843,
            "type" : "VEC3"
        },
        {
            "bufferView" : 3,
            "componentType" : 5123,
            "count" : 25344,
            "type" : "SCALAR"
        },
        {
            "bufferView" : 4,
            "componentType" : 5126,
            "count" : 5911,
            "max" : [
                14.089999198913574,
                5.220000267028809,
                1.1071158647537231
            ],
            "min" : [
                -4.107115745544434,
                0.779998779296875,
                -23.090003967285156
            ],
            "type" : "VEC3"
        },
        {
            "bufferView" : 5,
            "componentType" : 5126,
            "count" : 5911,
            "type" : "VEC2"
        },
        {
            "bufferView" : 6,
            "componentType" : 5126,
            "count" : 5911,
            "type" : "VEC3"
        },
        {
            "bufferView" : 7,
            "componentType" : 5123,
            "count" : 33792,
            "type" : "SCALAR"
        },
        {
            "bufferView" : 8,
            "componentType" : 5126,
            "count" : 5744,
            "max" : [
                14.000000953674316,
                5,
                1
            ],
            "min" : [
                -4,
                0.9999980926513672,
                -23.000001907348633
            ],
            "type" : "VEC3"
        },
        {
            "bufferView" : 9,
            "componentType" : 5126,
            "count" : 5744,
            "type" : "VEC2"
        },
        {
            "bufferView" : 10,
            "componentType" : 5126,
            "count" : 5744,
            "type" : "VEC3"
        },
        {
            "bufferView" : 11,
            "componentType" : 5123,
            "count" : 12288,
            "type" : "SCALAR"
        }
    ],
    "bufferViews" : [
        {
            "buffer" : 0,
            "byteLength" : 106116,
            "byteOffset" : 0,
            "target" : 34962
        },
        {
            "buffer" : 0,
            "byteLength" : 70744,
            "byteOffset" : 106116,
            "target" : 34962
        },
        {
            "buffer" : 0,
            "byteLength" : 106116,
            "byteOffset" : 176860,
            "target" : 34962
        },
        {
            "buffer" : 0,
            "byteLength" : 50688,
            "byteOffset" : 282976,
            "target" : 34963
        },
        {
            "buffer" : 0,
            "byteLength" : 70932,
            "byteOffset" : 333664,
            "target" : 34962
        },
        {
            "buffer" : 0,
            "byteLength" : 47288,
            "byteOffset" : 404596,
            "target" : 34962
        },
        {
            "buffer" : 0,
            "byteLength" : 70932,
            "byteOffset" : 451884,
            "target" : 34962
        },
        {
            "buffer" : 0,
            "byteLength" : 67584,
            "byteOffset" : 522816,
            "target" : 34963
        },
        {
            "buffer" : 0,
            "byteLength" : 68928,
            "byteOffset" : 590400,
            "target" : 34962
        },
        {
            "buffer" : 0,
            "byteLength" : 45952,
            "byteOffset" : 659328,
            "target" : 34962
        },
        {
            "buffer" : 0,
            "byteLength" : 68928,
            "byteOffset" : 705280,
            "target" : 34962
        },
        {
            "buffer" : 0,
            "byteLength" : 24576,
            "byteOffset" : 774208,
            "target" : 34963
        }
    ],
    "buffers" : [
        {
            "byteLength" : 798784,
            "uri" : "data:application/octet-stream;base64,"
        }
    ]
}
