{
    "asset" : {
        "generator" : "Khronos glTF Blender I/O v3.4.50",
        "version" : "2.0"
    },
    "scene" : 0,
    "scenes" : [
        {
            "name" : "Scene",
            "nodes" : [
                6
            ]
        }
    ],
    "nodes" : [
        {
            "mesh" : 0,
            "name" : "MiniCourse_Dirt_0"
        },
        {
            "mesh" : 1,
            "name" : "MiniCourse_Edge_0"
        },
        {
            "mesh" : 2,
            "name" : "MiniCourse_Grass_0"
        },
        {
            "children" : [
                0,
                1,
                2
            ],
            "name" : "MiniCourse"
        },
        {
            "children" : [
                3
            ],
            "name" : "RootNode"
        },
        {
            "children" : [
                4
            ],
            "name" : "9d7e819bf49c4cf1845d13ae3d6830d2.fbx"
        },
        {
            "children" : [
                5
            ],
            "name" : "Sketchfab_model"
        }
    ],
    "materials" : [
        {
            "doubleSided" : true,
            "name" : "Dirt.002",
            "pbrMetallicRoughness" : {
                "baseColorFactor" : [
                    0.2529430091381073,
                    0.06267660111188889,
                    0.01128809992223978,
                    1
                ],
                "metallicFactor" : 0,
                "roughnessFactor" : 0.977769672870636
            }
        },
        {
            "doubleSided" : true,
            "name" : "Edge.002",
            "pbrMetallicRoughness" : {
                "baseColorFactor" : [
                    0.800000011920929,
                    0.800000011920929,
                    0.800000011920929,
                    1
                ],
                "metallicFactor" : 0,
                "roughnessFactor" : 0.8211145401000977
            }
        },
        {
            "doubleSided" : true,
            "name" : "Grass.002",
            "pbrMetallicRoughness" : {
                "baseColorFactor" : [
                    0.13475799560546875,
                    0.800000011920929,
                    0.1362839937210083,
                    1
                ],
                "metallicFactor" : 0,
                "roughnessFactor" : 0.8634546995162964
            }
        }
    ],
    "meshes" : [
        {
            "name" : "MiniCourse_Dirt_0.002",
            "primitives" : [
                {
                    "attributes" : {
                        "POSITION" : 0,
                        "TEXCOORD_0" : 1,
                        "NORMAL" : 2
                    },
                    "indices" : 3,
                    "material" : 0
                }
            ]
        },
        {
            "name" : "MiniCourse_Edge_0.002",
            "primitives" : [
                {
                    "attributes" : {
                        "POSITION" : 4,
                        "TEXCOORD_0" : 5,
                        "NORMAL" : 6
                    },
                    "indices" : 7,
                    "material" : 1
                }
            ]
        },
        {
            "name" : "MiniCourse_Grass_0.002",
            "primitives" : [
                {
                    "attributes" : {
                        "POSITION" : 8,
                        "TEXCOORD_0" : 9,
                        "NORMAL" : 10
                    },
                    "indices" : 11,
                    "material" : 2
                }
            ]
        }
    ],
    "accessors" : [
        {
            "bufferView" : 0,
            "componentType" : 5126,
            "count" : 349,
            "max" : [
                3.6337900161743164,
                0.21227788925170898,
                1.3921117782592773
            ],
            "min" : [
                -20.345378875732422,
                -3.932342767715454,
                -16.603548049926758
            ],
            "type" : "VEC3"
        },
        {
            "bufferView" : 1,
            "componentType" : 5126,
            "count" : 349,
            "type" : "VEC2"
        },
        {
            "bufferView" : 2,
            "componentType" : 5126,
            "count" : 349,
            "type" : "VEC3"
        },
        {
            "bufferView" : 3,
            "componentType" : 5123,
            "count" : 1494,
            "type" : "SCALAR"
        },
        {
            "bufferView" : 4,
            "componentType" : 5126,
            "count" : 290,
            "max" : [
                3.7226662635803223,
                1.0853691101074219,
                1.4764213562011719
            ],
            "min" : [
                -20.46662712097168,
                -2.167276620864868,
                -16.7066707611084
            ],
            "type" : "VEC3"
        },
        {
            "bufferView" : 5,
            "componentType" : 5126,
            "count" : 290,
            "type" : "VEC2"
        },
        {
            "bufferView" : 6,
            "componentType" : 5126,
            "count" : 290,
            "type" : "VEC3"
        },
        {
            "bufferView" : 7,
            "componentType" : 5123,
            "count" : 1377,
            "type" : "SCALAR"
        },
        {
            "bufferView" : 8,
            "componentType" : 5126,
            "count" : 224,
            "max" : [
                3.633789539337158,
                0.21227788925170898,
                1.3964508771896362
            ],
            "min" : [
                -20.366212844848633,
                -1.9391674995422363,
                -16.603548049926758
            ],
            "type" : "VEC3"
        },
        {
            "bufferView" : 9,
            "componentType" : 5126,
            "count" : 224,
            "type" : "VEC2"
        },
        {
            "bufferView" : 10,
            "componentType" : 5126,
            "count" : 224,
            "type" : "VEC3"
        },
        {
            "bufferView" : 11,
            "componentType" : 5123,
            "count" : 357,
            "type" : "SCALAR"
        }
    ],
    "bufferViews" : [
        {
            "buffer" : 0,
            "byteLength" : 4188,
            "byteOffset" : 0,
            "target" : 34962
        },
        {
            "buffer" : 0,
            "byteLength" : 2792,
            "byteOffset" : 4188,
            "target" : 34962
        },
        {
            "buffer" : 0,
            "byteLength" : 4188,
            "byteOffset" : 6980,
            "target" : 34962
        },
        {
            "buffer" : 0,
            "byteLength" : 2988,
            "byteOffset" : 11168,
            "target" : 34963
        },
        {
            "buffer" : 0,
            "byteLength" : 3480,
            "byteOffset" : 14156,
            "target" : 34962
        },
        {
            "buffer" : 0,
            "byteLength" : 2320,
            "byteOffset" : 17636,
            "target" : 34962
        },
        {
            "buffer" : 0,
            "byteLength" : 3480,
            "byteOffset" : 19956,
            "target" : 34962
        },
        {
            "buffer" : 0,
            "byteLength" : 2754,
            "byteOffset" : 23436,
            "target" : 34963
        },
        {
            "buffer" : 0,
            "byteLength" : 2688,
            "byteOffset" : 26192,
            "target" : 34962
        },
        {
            "buffer" : 0,
            "byteLength" : 1792,
            "byteOffset" : 28880,
            "target" : 34962
        },
        {
            "buffer" : 0,
            "byteLength" : 2688,
            "byteOffset" : 30672,
            "target" : 34962
        },
        {
            "buffer" : 0,
            "byteLength" : 714,
            "byteOffset" : 33360,
            "target" : 34963
        }
    ],
    "buffers" : [
        {
            "byteLength" : 34076,
            "uri" : "data:application/octet-stream;base64,"
        }
    ]
}
