{
    "asset" : {
        "generator" : "Khronos glTF Blender I/O v3.4.50",
        "version" : "2.0"
    },
    "scene" : 0,
    "scenes" : [
        {
            "name" : "Scene",
            "nodes" : [
                0,
                1,
                2
            ]
        }
    ],
    "nodes" : [
        {
            "mesh" : 0,
            "name" : "Grip_Rubber - Weathered_0",
            "rotation" : [
                1,
                0,
                0,
                0
            ]
        },
        {
            "mesh" : 1,
            "name" : "Shaft_Iron - Polished_0",
            "rotation" : [
                1,
                0,
                0,
                0
            ]
        },
        {
            "mesh" : 2,
            "name" : "Wedge_Iron - Polished_0",
            "rotation" : [
                1,
                0,
                0,
                0
            ]
        }
    ],
    "materials" : [
        {
            "doubleSided" : true,
            "name" : "Rubber_-_Weathered",
            "pbrMetallicRoughness" : {
                "baseColorFactor" : [
                    0.1529410034418106,
                    0.1529410034418106,
                    0.1529410034418106,
                    1
                ],
                "metallicFactor" : 0,
                "roughnessFactor" : 0.9577051401138306
            }
        },
        {
            "doubleSided" : true,
            "name" : "Iron_-_Polished",
            "pbrMetallicRoughness" : {
                "baseColorFactor" : [
                    0.749019980430603,
                    0.7411760091781616,
                    0.7333329916000366,
                    1
                ],
                "metallicFactor" : 0,
                "roughnessFactor" : 0.9577051401138306
            }
        }
    ],
    "meshes" : [
        {
            "name" : "Grip_Rubber - Weathered_0",
            "primitives" : [
                {
                    "attributes" : {
                        "POSITION" : 0,
                        "TEXCOORD_0" : 1,
                        "NORMAL" : 2
                    },
                    "indices" : 3,
                    "material" : 0
                }
            ]
        },
        {
            "name" : "Shaft_Iron - Polished_0",
            "primitives" : [
                {
                    "attributes" : {
                        "POSITION" : 4,
                        "TEXCOORD_0" : 5,
                        "NORMAL" : 6
                    },
                    "indices" : 7,
                    "material" : 1
                }
            ]
        },
        {
            "name" : "Wedge_Iron - Polished_0",
            "primitives" : [
                {
                    "attributes" : {
                        "POSITION" : 8,
                        "NORMAL" : 9
                    },
                    "indices" : 10,
                    "material" : 1
                }
            ]
        }
    ],
    "accessors" : [
        {
            "bufferView" : 0,
            "componentType" : 5126,
            "count" : 195,
            "max" : [
                4.879138469696045,
                4.144445896148682,
                13.908049583435059
            ],
            "min" : [
                3.180790901184082,
                2.472292900085449,
                -14.256231307983398
            ],
            "type" : "VEC3"
        },
        {
            "bufferView" : 1,
            "componentType" : 5126,
            "count" : 195,
            "type" : "VEC2"
        },
        {
            "bufferView" : 2,
            "componentType" : 5126,
            "count" : 195,
            "type" : "VEC3"
        },
        {
            "bufferView" : 3,
            "componentType" : 5123,
            "count" : 645,
            "type" : "SCALAR"
        },
        {
            "bufferView" : 4,
            "componentType" : 5126,
            "count" : 151,
            "max" : [
                4.730302333831787,
                3.940778970718384,
                73.90289306640625
            ],
            "min" : [
                3.329418182373047,
                2.5399367809295654,
                13.900103569030762
            ],
            "type" : "VEC3"
        },
        {
            "bufferView" : 5,
            "componentType" : 5126,
            "count" : 151,
            "type" : "VEC2"
        },
        {
            "bufferView" : 6,
            "componentType" : 5126,
            "count" : 151,
            "type" : "VEC3"
        },
        {
            "bufferView" : 7,
            "componentType" : 5123,
            "count" : 255,
            "type" : "SCALAR"
        },
        {
            "bufferView" : 8,
            "componentType" : 5126,
            "count" : 310,
            "max" : [
                6.913179874420166,
                3.800004720687866,
                81.55711364746094
            ],
            "min" : [
                3.3417201042175293,
                -4.915337562561035,
                73.90187072753906
            ],
            "type" : "VEC3"
        },
        {
            "bufferView" : 9,
            "componentType" : 5126,
            "count" : 310,
            "type" : "VEC3"
        },
        {
            "bufferView" : 10,
            "componentType" : 5123,
            "count" : 312,
            "type" : "SCALAR"
        }
    ],
    "bufferViews" : [
        {
            "buffer" : 0,
            "byteLength" : 2340,
            "byteOffset" : 0,
            "target" : 34962
        },
        {
            "buffer" : 0,
            "byteLength" : 1560,
            "byteOffset" : 2340,
            "target" : 34962
        },
        {
            "buffer" : 0,
            "byteLength" : 2340,
            "byteOffset" : 3900,
            "target" : 34962
        },
        {
            "buffer" : 0,
            "byteLength" : 1290,
            "byteOffset" : 6240,
            "target" : 34963
        },
        {
            "buffer" : 0,
            "byteLength" : 1812,
            "byteOffset" : 7532,
            "target" : 34962
        },
        {
            "buffer" : 0,
            "byteLength" : 1208,
            "byteOffset" : 9344,
            "target" : 34962
        },
        {
            "buffer" : 0,
            "byteLength" : 1812,
            "byteOffset" : 10552,
            "target" : 34962
        },
        {
            "buffer" : 0,
            "byteLength" : 510,
            "byteOffset" : 12364,
            "target" : 34963
        },
        {
            "buffer" : 0,
            "byteLength" : 3720,
            "byteOffset" : 12876,
            "target" : 34962
        },
        {
            "buffer" : 0,
            "byteLength" : 3720,
            "byteOffset" : 16596,
            "target" : 34962
        },
        {
            "buffer" : 0,
            "byteLength" : 624,
            "byteOffset" : 20316,
            "target" : 34963
        }
    ],
    "buffers" : [
        {
            "byteLength" : 20940,
            "uri" : "data:application/octet-stream;base64,"
        }
    ]
}
