{
  "accessors": [
    {
      "bufferView": 2,
      "componentType": 5126,
      "count": 966,
      "max": [
        53.88249588012695,
        80.30194091796875,
        -0.2776883542537689
      ],
      "min": [
        38.623538970947266,
        55.38756561279297,
        -1.9760769605636597
      ],
      "type": "VEC3"
    },
    {
      "bufferView": 2,
      "byteOffset": 11592,
      "componentType": 5126,
      "count": 966,
      "max": [
        0.995683491230011,
        0.9999607801437378,
        1.0
      ],
      "min": [
        -0.9983670711517334,
        -0.9985164999961853,
        -1.0
      ],
      "type": "VEC3"
    },
    {
      "bufferView": 1,
      "componentType": 5126,
      "count": 966,
      "max": [
        0.6752675175666809,
        2.2973783016204834
      ],
      "min": [
        -27.900367736816406,
        -2.2973783016204834
      ],
      "type": "VEC2"
    },
    {
      "bufferView": 0,
      "componentType": 5125,
      "count": 4284,
      "type": "SCALAR"
    },
    {
      "bufferView": 2,
      "byteOffset": 23184,
      "componentType": 5126,
      "count": 252,
      "max": [
        39.8643913269043,
        56.08844757080078,
        -0.42688262462615967
      ],
      "min": [
        8.825161933898926,
        3.5269243717193604,
        -1.8268826007843018
      ],
      "type": "VEC3"
    },
    {
      "bufferView": 2,
      "byteOffset": 26208,
      "componentType": 5126,
      "count": 252,
      "max": [
        0.8643539547920227,
        0.8660253882408142,
        0.9999944567680359
      ],
      "min": [
        -0.8676873445510864,
        -0.8660253882408142,
        -0.9999944567680359
      ],
      "type": "VEC3"
    },
    {
      "bufferView": 1,
      "byteOffset": 7728,
      "componentType": 5126,
      "count": 252,
      "max": [
        0.699999988079071,
        1.6970878839492798
      ],
      "min": [
        -60.00033187866211,
        -1.6970878839492798
      ],
      "type": "VEC2"
    },
    {
      "bufferView": 0,
      "byteOffset": 17136,
      "componentType": 5125,
      "count": 828,
      "type": "SCALAR"
    },
    {
      "bufferView": 2,
      "byteOffset": 29232,
      "componentType": 5126,
      "count": 8159,
      "max": [
        9.711981773376465,
        4.481759071350098,
        -0.42688262462615967
      ],
      "min": [
        0.0,
        -0.14418087899684906,
        -4.056073188781738
      ],
      "type": "VEC3"
    },
    {
      "bufferView": 2,
      "byteOffset": 127140,
      "componentType": 5126,
      "count": 8159,
      "max": [
        1.0,
        1.0,
        1.0
      ],
      "min": [
        -1.0,
        -1.0,
        -1.0
      ],
      "type": "VEC3"
    },
    {
      "bufferView": 1,
      "byteOffset": 9744,
      "componentType": 5126,
      "count": 8159,
      "max": [
        6.982113838195801,
        17.180070877075195
      ],
      "min": [
        -6.625213146209717,
        -7.256402969360352
      ],
      "type": "VEC2"
    },
    {
      "bufferView": 0,
      "byteOffset": 20448,
      "componentType": 5125,
      "count": 28719,
      "type": "SCALAR"
    }
  ],
  "asset": {
    "extras": {
      "author": "jollygolf (https://sketchfab.com/jollygolf)",
      "license": "CC-BY-4.0 (http://creativecommons.org/licenses/by/4.0/)",
      "source": "https://sketchfab.com/3d-models/golf-wedge-iron-567173a89da94e628a30bacb1ef1469f",
      "title": "Golf wedge iron"
    },
    "generator": "Sketchfab-12.66.0",
    "version": "2.0"
  },
  "bufferViews": [
    {
      "buffer": 0,
      "byteLength": 135324,
      "name": "floatBufferViews",
      "target": 34963
    },
    {
      "buffer": 0,
      "byteLength": 75016,
      "byteOffset": 135324,
      "byteStride": 8,
      "name": "floatBufferViews",
      "target": 34962
    },
    {
      "buffer": 0,
      "byteLength": 225048,
      "byteOffset": 210340,
      "byteStride": 12,
      "name": "floatBufferViews",
      "target": 34962
    }
  ],
  "buffers": [
    {
      "byteLength": 435388,
      "uri": "scene.bin"
    }
  ],
  "materials": [
    {
      "doubleSided": true,
      "name": "Rubber_-_Weathered",
      "pbrMetallicRoughness": {
        "baseColorFactor": [
          0.152941,
          0.152941,
          0.152941,
          1.0
        ],
        "metallicFactor": 0.0,
        "roughnessFactor": 0.9577051494623774
      }
    },
    {
      "doubleSided": true,
      "name": "Iron_-_Polished",
      "pbrMetallicRoughness": {
        "baseColorFactor": [
          0.74902,
          0.741176,
          0.733333,
          1.0
        ],
        "metallicFactor": 0.0,
        "roughnessFactor": 0.9577051494623774
      }
    }
  ],
  "meshes": [
    {
      "name": "Grip_Rubber - Weathered_0",
      "primitives": [
        {
          "attributes": {
            "NORMAL": 1,
            "POSITION": 0,
            "TEXCOORD_0": 2
          },
          "indices": 3,
          "material": 0,
          "mode": 4
        }
      ]
    },
    {
      "name": "Shaft_Iron - Polished_0",
      "primitives": [
        {
          "attributes": {
            "NORMAL": 5,
            "POSITION": 4,
            "TEXCOORD_0": 6
          },
          "indices": 7,
          "material": 1,
          "mode": 4
        }
      ]
    },
    {
      "name": "Wedge_Iron - Polished_0",
      "primitives": [
        {
          "attributes": {
            "NORMAL": 9,
            "POSITION": 8,
            "TEXCOORD_0": 10
          },
          "indices": 11,
          "material": 1,
          "mode": 4
        }
      ]
    }
  ],
  "nodes": [
    {
      "children": [
        1
      ],
      "matrix": [
        1.0,
        0.0,
        0.0,
        0.0,
        0.0,
        2.220446049250313e-16,
        -1.0,
        0.0,
        0.0,
        1.0,
        2.220446049250313e-16,
        0.0,
        0.0,
        0.0,
        0.0,
        1.0
      ],
      "name": "Sketchfab_model"
    },
    {
      "children": [
        2
      ],
      "matrix": [
        0.0010000000474974513,
        0.0,
        0.0,
        0.0,
        0.0,
        0.0,
        0.0010000000474974513,
        0.0,
        0.0,
        -0.0010000000474974513,
        0.0,
        0.0,
        0.0,
        0.0,
        0.0,
        1.0
      ],
      "name": "47cf9895bc6844949066206a274918e4.fbx"
    },
    {
      "children": [
        3
      ],
      "name": "RootNode"
    },
    {
      "children": [
        4
      ],
      "name": "AssemblatoMancinoGB v5"
    },
    {
      "children": [
        5
      ],
      "matrix": [
        0.06984352069096333,
        0.9046897411674918,
        -0.4203074527578446,
        0.0,
        -0.040324175472081225,
        0.4235524409588195,
        0.9049736408483523,
        0.0,
        0.9967426164712674,
        -0.04625799373213757,
        0.06606326154444497,
        0.0,
        35.98777389526367,
        -829.7283935546875,
        -556.8643188476563,
        1.0
      ],
      "name": "FullWedge v8:1"
    },
    {
      "children": [
        6,
        10,
        14
      ],
      "matrix": [
        1.0,
        5.551115123125783e-17,
        -1.3877787807814457e-17,
        0.0,
        -5.551115123125783e-17,
        1.0,
        1.3877787807814454e-17,
        0.0,
        1.3877787807814457e-17,
        -1.3877787807814454e-17,
        1.0,
        0.0,
        0.0,
        0.0,
        0.0,
        1.0
      ],
      "name": "FullWedge v8"
    },
    {
      "children": [
        7
      ],
      "matrix": [
        1.0,
        7.216449660063509e-16,
        1.3669620990697216e-15,
        0.0,
        -7.216449660063511e-16,
        1.0,
        1.8735013540549536e-16,
        0.0,
        -1.3669620990697216e-15,
        -1.8735013540549635e-16,
        1.0,
        0.0,
        -1.0231815394945443e-12,
        1.2505552149377763e-12,
        -7.602807272633072e-13,
        1.0
      ],
      "name": "Grip:1"
    },
    {
      "children": [
        8
      ],
      "matrix": [
        1.0,
        -5.551115123125783e-17,
        -2.42861286636753e-17,
        0.0,
        5.551115123125783e-17,
        1.0,
        6.9388939039072276e-18,
        0.0,
        2.42861286636753e-17,
        -6.938893903907228e-18,
        1.0,
        0.0,
        0.0,
        0.0,
        0.0,
        1.0
      ],
      "name": "Grip"
    },
    {
      "children": [
        9
      ],
      "matrix": [
        10.0,
        -8.881784197001249e-16,
        -1.1102230246251563e-16,
        0.0,
        8.881784197001249e-16,
        10.0,
        -1.1102230246251565e-16,
        0.0,
        1.1102230246251563e-16,
        1.1102230246251565e-16,
        10.0,
        0.0,
        0.0,
        0.0,
        0.0,
        1.0
      ],
      "name": "Grip"
    },
    {
      "mesh": 0,
      "name": "Grip_Rubber - Weathered_0"
    },
    {
      "children": [
        11
      ],
      "matrix": [
        1.0,
        -5.551115123125781e-16,
        3.8163916471489746e-16,
        0.0,
        5.551115123125785e-16,
        1.0,
        -8.812395257962196e-16,
        0.0,
        -3.8163916471489697e-16,
        8.812395257962198e-16,
        1.0,
        0.0,
        1.1368683772161603e-13,
        3.183231456205249e-12,
        6.608047442568932e-13,
        1.0
      ],
      "name": "Shaft:1"
    },
    {
      "children": [
        12
      ],
      "matrix": [
        1.0,
        5.5511151231257815e-17,
        2.4286128663675293e-17,
        0.0,
        -5.5511151231257815e-17,
        1.0,
        0.0,
        0.0,
        -2.4286128663675293e-17,
        -1.3481509610710644e-33,
        1.0,
        0.0,
        0.0,
        0.0,
        0.0,
        1.0
      ],
      "name": "Shaft"
    },
    {
      "children": [
        13
      ],
      "matrix": [
        10.0,
        4.440892098500625e-16,
        2.2204460492503126e-16,
        0.0,
        -4.440892098500625e-16,
        10.0,
        0.0,
        0.0,
        -2.2204460492503126e-16,
        -9.860761315262643e-33,
        10.0,
        0.0,
        0.0,
        0.0,
        0.0,
        1.0
      ],
      "name": "Shaft"
    },
    {
      "mesh": 1,
      "name": "Shaft_Iron - Polished_0"
    },
    {
      "children": [
        15
      ],
      "matrix": [
        10.0,
        8.88178419700125e-16,
        -1.6653345369377343e-16,
        0.0,
        -8.88178419700125e-16,
        10.0,
        1.1102230246251563e-16,
        0.0,
        1.6653345369377343e-16,
        -1.1102230246251563e-16,
        10.0,
        0.0,
        0.0,
        0.0,
        0.0,
        1.0
      ],
      "name": "Wedge"
    },
    {
      "mesh": 2,
      "name": "Wedge_Iron - Polished_0"
    }
  ],
  "scene": 0,
  "scenes": [
    {
      "name": "Sketchfab_Scene",
      "nodes": [
        0
      ]
    }
  ]
}
