{
  "accessors": [
    {
      "bufferView": 1,
      "componentType": 5126,
      "count": 28,
      "max": [
        317.6577453613281,
        441.8066711425781,
        89.6875
      ],
      "min": [
        310.44482421875,
        434.5937805175781,
        7.6875
      ],
      "type": "VEC3"
    },
    {
      "bufferView": 1,
      "byteOffset": 336,
      "componentType": 5126,
      "count": 28,
      "max": [
        1.0,
        1.0,
        1.0
      ],
      "min": [
        -1.0,
        -1.0,
        0.0
      ],
      "type": "VEC3"
    },
    {
      "bufferView": 0,
      "componentType": 5125,
      "count": 48,
      "type": "SCALAR"
    },
    {
      "bufferView": 1,
      "byteOffset": 672,
      "componentType": 5126,
      "count": 949,
      "max": [
        320.9774475097656,
        444.6277770996094,
        176.91708374023438
      ],
      "min": [
        192.37533569335938,
        -27.23809242248535,
        89.0
      ],
      "type": "VEC3"
    },
    {
      "bufferView": 1,
      "byteOffset": 12060,
      "componentType": 5126,
      "count": 949,
      "max": [
        1.0,
        1.0,
        1.0
      ],
      "min": [
        -1.0,
        -1.0,
        -1.0
      ],
      "type": "VEC3"
    },
    {
      "bufferView": 0,
      "byteOffset": 192,
      "componentType": 5125,
      "count": 4041,
      "type": "SCALAR"
    },
    {
      "bufferView": 1,
      "byteOffset": 23448,
      "componentType": 5126,
      "count": 1206,
      "max": [
        329.58917236328125,
        434.5937805175781,
        187.78915405273438
      ],
      "min": [
        148.7122344970703,
        -27.23809242248535,
        4.463627338409424
      ],
      "type": "VEC3"
    },
    {
      "bufferView": 1,
      "byteOffset": 37920,
      "componentType": 5126,
      "count": 1206,
      "max": [
        1.0,
        1.0,
        1.0
      ],
      "min": [
        -1.0,
        -1.0,
        -1.0
      ],
      "type": "VEC3"
    },
    {
      "bufferView": 0,
      "byteOffset": 16356,
      "componentType": 5125,
      "count": 2598,
      "type": "SCALAR"
    },
    {
      "bufferView": 1,
      "byteOffset": 52392,
      "componentType": 5126,
      "count": 168,
      "max": [
        266.9461669921875,
        55.15839767456055,
        194.72958374023438
      ],
      "min": [
        211.00868225097656,
        -2.5887162685394287,
        0.0
      ],
      "type": "VEC3"
    },
    {
      "bufferView": 1,
      "byteOffset": 54408,
      "componentType": 5126,
      "count": 168,
      "max": [
        1.0,
        1.0,
        1.0
      ],
      "min": [
        -1.0,
        -1.0,
        0.0
      ],
      "type": "VEC3"
    },
    {
      "bufferView": 0,
      "byteOffset": 26748,
      "componentType": 5125,
      "count": 294,
      "type": "SCALAR"
    },
    {
      "bufferView": 1,
      "byteOffset": 56424,
      "componentType": 5126,
      "count": 894,
      "max": [
        318.1920166015625,
        72.92910766601563,
        194.72958374023438
      ],
      "min": [
        159.9036865234375,
        -20.671916961669922,
        0.0
      ],
      "type": "VEC3"
    },
    {
      "bufferView": 1,
      "byteOffset": 67152,
      "componentType": 5126,
      "count": 894,
      "max": [
        1.0,
        1.0,
        1.0
      ],
      "min": [
        -1.0,
        -1.0,
        -1.0
      ],
      "type": "VEC3"
    },
    {
      "bufferView": 0,
      "byteOffset": 27924,
      "componentType": 5125,
      "count": 1971,
      "type": "SCALAR"
    },
    {
      "bufferView": 1,
      "byteOffset": 77880,
      "componentType": 5126,
      "count": 436,
      "max": [
        318.1920166015625,
        441.8066711425781,
        78.01128387451172
      ],
      "min": [
        31.981937408447266,
        -335.0937194824219,
        -10.0
      ],
      "type": "VEC3"
    },
    {
      "bufferView": 1,
      "byteOffset": 83112,
      "componentType": 5126,
      "count": 436,
      "max": [
        1.0,
        1.0,
        1.0
      ],
      "min": [
        -1.0,
        -1.0,
        -1.0
      ],
      "type": "VEC3"
    },
    {
      "bufferView": 0,
      "byteOffset": 35808,
      "componentType": 5125,
      "count": 2013,
      "type": "SCALAR"
    },
    {
      "bufferView": 1,
      "byteOffset": 88344,
      "componentType": 5126,
      "count": 74,
      "max": [
        310.44482421875,
        434.5937805175781,
        0.0
      ],
      "min": [
        39.19483947753906,
        -335.0937194824219,
        -10.0
      ],
      "type": "VEC3"
    },
    {
      "bufferView": 1,
      "byteOffset": 89232,
      "componentType": 5126,
      "count": 74,
      "max": [
        0.0,
        0.0,
        1.0
      ],
      "min": [
        0.0,
        -1.0,
        -1.0
      ],
      "type": "VEC3"
    },
    {
      "bufferView": 0,
      "byteOffset": 43860,
      "componentType": 5125,
      "count": 192,
      "type": "SCALAR"
    },
    {
      "bufferView": 1,
      "byteOffset": 90120,
      "componentType": 5126,
      "count": 48,
      "max": [
        193.13150024414063,
        362.8566589355469,
        0.0
      ],
      "min": [
        176.6637420654297,
        346.3888854980469,
        -8.5625
      ],
      "type": "VEC3"
    },
    {
      "bufferView": 1,
      "byteOffset": 90696,
      "componentType": 5126,
      "count": 48,
      "max": [
        1.0,
        1.0,
        0.0
      ],
      "min": [
        -1.0,
        -1.0,
        0.0
      ],
      "type": "VEC3"
    },
    {
      "bufferView": 0,
      "byteOffset": 44628,
      "componentType": 5125,
      "count": 144,
      "type": "SCALAR"
    },
    {
      "bufferView": 1,
      "byteOffset": 91272,
      "componentType": 5126,
      "count": 103,
      "max": [
        318.1920166015625,
        441.8066711425781,
        7.6875
      ],
      "min": [
        31.981937408447266,
        -335.0937194824219,
        -10.0
      ],
      "type": "VEC3"
    },
    {
      "bufferView": 1,
      "byteOffset": 92508,
      "componentType": 5126,
      "count": 103,
      "max": [
        1.0,
        1.0,
        1.0
      ],
      "min": [
        -1.0,
        -1.0,
        -1.0
      ],
      "type": "VEC3"
    },
    {
      "bufferView": 0,
      "byteOffset": 45204,
      "componentType": 5125,
      "count": 204,
      "type": "SCALAR"
    },
    {
      "bufferView": 1,
      "byteOffset": 93744,
      "componentType": 5126,
      "count": 472,
      "max": [
        318.87078857421875,
        432.2187805175781,
        73.16405487060547
      ],
      "min": [
        309.4952697753906,
        431.693359375,
        58.37811279296875
      ],
      "type": "VEC3"
    },
    {
      "bufferView": 1,
      "byteOffset": 99408,
      "componentType": 5126,
      "count": 472,
      "max": [
        1.0,
        1.0,
        0.9998602867126465
      ],
      "min": [
        -1.0,
        -1.0,
        -0.9998602867126465
      ],
      "type": "VEC3"
    },
    {
      "bufferView": 0,
      "byteOffset": 46020,
      "componentType": 5125,
      "count": 1296,
      "type": "SCALAR"
    }
  ],
  "asset": {
    "extras": {
      "author": "Designed By Jonathan (https://sketchfab.com/designedbyjonathan)",
      "license": "CC-BY-4.0 (http://creativecommons.org/licenses/by/4.0/)",
      "source": "https://sketchfab.com/3d-models/mini-golf-windmill-dbe271058d01476ca7efabaf65bc39c0",
      "title": "Mini Golf Windmill"
    },
    "generator": "Sketchfab-12.65.0",
    "version": "2.0"
  },
  "bufferViews": [
    {
      "buffer": 0,
      "byteLength": 51204,
      "name": "floatBufferViews",
      "target": 34963
    },
    {
      "buffer": 0,
      "byteLength": 105072,
      "byteOffset": 51204,
      "byteStride": 12,
      "name": "floatBufferViews",
      "target": 34962
    }
  ],
  "buffers": [
    {
      "byteLength": 156276,
      "uri": "scene.bin"
    }
  ],
  "materials": [
    {
      "name": "Material3",
      "pbrMetallicRoughness": {
        "baseColorFactor": [
          0.0588235,
          0.498039,
          0.996078,
          1.0
        ],
        "metallicFactor": 0.0,
        "roughnessFactor": 0.6
      }
    },
    {
      "name": "Material6",
      "pbrMetallicRoughness": {
        "baseColorFactor": [
          0.9700679790705267,
          0.10876679327807658,
          0.10532060715671158,
          1.0
        ],
        "metallicFactor": 0.0,
        "roughnessFactor": 0.6
      }
    },
    {
      "name": "Material4",
      "pbrMetallicRoughness": {
        "baseColorFactor": [
          1.0,
          0.9801624581076352,
          0.21815952230455524,
          1.0
        ],
        "metallicFactor": 0.0,
        "roughnessFactor": 0.6
      }
    },
    {
      "name": "Material7",
      "pbrMetallicRoughness": {
        "baseColorFactor": [
          0.6429212312351363,
          0.17790678954877337,
          0.9117889721365602,
          1.0
        ],
        "metallicFactor": 0.0,
        "roughnessFactor": 0.6
      }
    },
    {
      "name": "Material5",
      "pbrMetallicRoughness": {
        "baseColorFactor": [
          0.4,
          0.4,
          0.996078,
          1.0
        ],
        "metallicFactor": 0.0,
        "roughnessFactor": 0.6
      }
    },
    {
      "name": "material",
      "pbrMetallicRoughness": {
        "metallicFactor": 0.0,
        "roughnessFactor": 0.6
      }
    },
    {
      "name": "Material1",
      "pbrMetallicRoughness": {
        "baseColorFactor": [
          0.0627451,
          0.498039,
          0.25098,
          1.0
        ],
        "metallicFactor": 0.0,
        "roughnessFactor": 0.6
      }
    },
    {
      "name": "Material2",
      "pbrMetallicRoughness": {
        "baseColorFactor": [
          0.0941176,
          0.0941176,
          0.0941176,
          1.0
        ],
        "metallicFactor": 0.0,
        "roughnessFactor": 0.6
      }
    },
    {
      "name": "Material",
      "pbrMetallicRoughness": {
        "baseColorFactor": [
          0.9700679790705267,
          0.11632698319949535,
          0.1340213716474805,
          1.0
        ],
        "metallicFactor": 0.0,
        "roughnessFactor": 0.6
      }
    },
    {
      "name": "Material8",
      "pbrMetallicRoughness": {
        "baseColorFactor": [
          0.984314,
          0.0039216,
          0.0235294,
          1.0
        ],
        "metallicFactor": 0.0,
        "roughnessFactor": 0.6
      }
    }
  ],
  "meshes": [
    {
      "name": "Material2",
      "primitives": [
        {
          "attributes": {
            "NORMAL": 1,
            "POSITION": 0
          },
          "indices": 2,
          "material": 0,
          "mode": 4
        }
      ]
    },
    {
      "name": "Material3",
      "primitives": [
        {
          "attributes": {
            "NORMAL": 4,
            "POSITION": 3
          },
          "indices": 5,
          "material": 1,
          "mode": 4
        }
      ]
    },
    {
      "name": "Material2",
      "primitives": [
        {
          "attributes": {
            "NORMAL": 7,
            "POSITION": 6
          },
          "indices": 8,
          "material": 2,
          "mode": 4
        }
      ]
    },
    {
      "name": "Material3",
      "primitives": [
        {
          "attributes": {
            "NORMAL": 10,
            "POSITION": 9
          },
          "indices": 11,
          "material": 3,
          "mode": 4
        }
      ]
    },
    {
      "name": "Material2",
      "primitives": [
        {
          "attributes": {
            "NORMAL": 13,
            "POSITION": 12
          },
          "indices": 14,
          "material": 4,
          "mode": 4
        }
      ]
    },
    {
      "name": "Material2",
      "primitives": [
        {
          "attributes": {
            "NORMAL": 16,
            "POSITION": 15
          },
          "indices": 17,
          "material": 5,
          "mode": 4
        }
      ]
    },
    {
      "name": "Material3",
      "primitives": [
        {
          "attributes": {
            "NORMAL": 19,
            "POSITION": 18
          },
          "indices": 20,
          "material": 6,
          "mode": 4
        }
      ]
    },
    {
      "name": "Material3",
      "primitives": [
        {
          "attributes": {
            "NORMAL": 22,
            "POSITION": 21
          },
          "indices": 23,
          "material": 7,
          "mode": 4
        }
      ]
    },
    {
      "name": "Material3",
      "primitives": [
        {
          "attributes": {
            "NORMAL": 25,
            "POSITION": 24
          },
          "indices": 26,
          "material": 8,
          "mode": 4
        }
      ]
    },
    {
      "name": "Material2",
      "primitives": [
        {
          "attributes": {
            "NORMAL": 28,
            "POSITION": 27
          },
          "indices": 29,
          "material": 9,
          "mode": 4
        }
      ]
    }
  ],
  "nodes": [
    {
      "children": [
        1
      ],
      "matrix": [
        -2.220446049250313e-16,
        -6.123234262925839e-17,
        1.0,
        0.0,
        1.0,
        -1.6081226229577296e-16,
        2.2204460492503128e-16,
        0.0,
        1.6081226229577292e-16,
        1.0,
        6.123234262925839e-17,
        0.0,
        126.0179443359375,
        3.809208807756259e-14,
        -235.551513671875,
        1.0
      ],
      "name": "Sketchfab_model"
    },
    {
      "children": [
        2,
        3,
        4,
        5,
        6,
        7,
        8,
        9,
        10,
        11,
        12
      ],
      "name": "Collada visual scene group"
    },
    {
      "mesh": 0,
      "name": "Material2"
    },
    {
      "mesh": 1,
      "name": "Material3"
    },
    {
      "mesh": 2,
      "name": "Material2"
    },
    {
      "mesh": 3,
      "name": "Material3"
    },
    {
      "mesh": 4,
      "name": "Material2"
    },
    {
      "mesh": 5,
      "name": "Material2"
    },
    {
      "mesh": 6,
      "name": "Material3"
    },
    {
      "mesh": 7,
      "name": "Material3"
    },
    {
      "mesh": 8,
      "name": "Material3"
    },
    {
      "mesh": 9,
      "name": "Material2"
    },
    {
      "children": [
        13
      ],
      "name": "SketchUp"
    },
    {
      "children": [
        14
      ],
      "matrix": [
        0.7722951,
        -0.6352639,
        0.0,
        0.0,
        0.1487652,
        0.180855,
        0.9721936,
        0.0,
        -0.6175995,
        -0.7508203,
        0.2341786,
        0.0,
        -353.6391907,
        -843.3883057,
        326.8869019,
        1.0
      ],
      "name": "skp_camera_Last_Saved_SketchUp_View"
    },
    {
      "name": "ID1"
    }
  ],
  "scene": 0,
  "scenes": [
    {
      "name": "Sketchfab_Scene",
      "nodes": [
        0
      ]
    }
  ]
}
